<svg xmlns="http://www.w3.org/2000/svg" width="1180" height="168" viewBox="0 0 1180 168" role="img" aria-label="GitHub contribution statistics"><rect width="1180" height="168" rx="12" fill="#FFFFFF"/><rect x="0.5" y="0.5" width="1179" height="167" rx="12" fill="none" stroke="#D7DEE8"/><text x="130.8" y="58" text-anchor="middle" font-family="ui-monospace,SFMono-Regular,Menlo,Consolas,monospace" font-size="30" font-weight="700" fill="#0F172A">326</text><text x="130.8" y="76" text-anchor="middle" font-family="ui-monospace,SFMono-Regular,Menlo,Consolas,monospace" font-size="11.5" letter-spacing="1.1" fill="#0369A1">contributions</text><text x="130.8" y="91" text-anchor="middle" font-family="ui-monospace,SFMono-Regular,Menlo,Consolas,monospace" font-size="10" fill="#94A3B8">last 12 months</text><line x1="245.6" y1="26" x2="245.6" y2="86" stroke="#D7DEE8"/><text x="360.4" y="58" text-anchor="middle" font-family="ui-monospace,SFMono-Regular,Menlo,Consolas,monospace" font-size="30" font-weight="700" fill="#0F172A">110</text><text x="360.4" y="76" text-anchor="middle" font-family="ui-monospace,SFMono-Regular,Menlo,Consolas,monospace" font-size="11.5" letter-spacing="1.1" fill="#0369A1">active days</text><text x="360.4" y="91" text-anchor="middle" font-family="ui-monospace,SFMono-Regular,Menlo,Consolas,monospace" font-size="10" fill="#94A3B8">of 369</text><line x1="475.2" y1="26" x2="475.2" y2="86" stroke="#D7DEE8"/><text x="590.0" y="58" text-anchor="middle" font-family="ui-monospace,SFMono-Regular,Menlo,Consolas,monospace" font-size="30" font-weight="700" fill="#0F172A">35</text><text x="590.0" y="76" text-anchor="middle" font-family="ui-monospace,SFMono-Regular,Menlo,Consolas,monospace" font-size="11.5" letter-spacing="1.1" fill="#0369A1">longest streak</text><text x="590.0" y="91" text-anchor="middle" font-family="ui-monospace,SFMono-Regular,Menlo,Consolas,monospace" font-size="10" fill="#94A3B8">consecutive days</text><line x1="704.8" y1="26" x2="704.8" y2="86" stroke="#D7DEE8"/><text x="819.6" y="58" text-anchor="middle" font-family="ui-monospace,SFMono-Regular,Menlo,Consolas,monospace" font-size="30" font-weight="700" fill="#0F172A">25</text><text x="819.6" y="76" text-anchor="middle" font-family="ui-monospace,SFMono-Regular,Menlo,Consolas,monospace" font-size="11.5" letter-spacing="1.1" fill="#0369A1">best day</text><text x="819.6" y="91" text-anchor="middle" font-family="ui-monospace,SFMono-Regular,Menlo,Consolas,monospace" font-size="10" fill="#94A3B8">2026-01-14</text><line x1="934.4" y1="26" x2="934.4" y2="86" stroke="#D7DEE8"/><text x="1049.2" y="58" text-anchor="middle" font-family="ui-monospace,SFMono-Regular,Menlo,Consolas,monospace" font-size="30" font-weight="700" fill="#0F172A">Thu</text><text x="1049.2" y="76" text-anchor="middle" font-family="ui-monospace,SFMono-Regular,Menlo,Consolas,monospace" font-size="11.5" letter-spacing="1.1" fill="#0369A1">busiest weekday</text><text x="1049.2" y="91" text-anchor="middle" font-family="ui-monospace,SFMono-Regular,Menlo,Consolas,monospace" font-size="10" fill="#94A3B8">by volume</text><rect x="16.00" y="144.00" width="20.48" height="2.00" rx="1.2" fill="#7DD3FC" opacity="0.35"/><rect x="38.08" y="144.00" width="20.48" height="2.00" rx="1.2" fill="#7DD3FC" opacity="0.35"/><rect x="60.15" y="138.14" width="20.48" height="7.86" rx="1.2" fill="#0369A1" opacity="1"/><rect x="82.23" y="144.00" width="20.48" height="2.00" rx="1.2" fill="#7DD3FC" opacity="0.35"/><rect x="104.31" y="144.00" width="20.48" height="2.00" rx="1.2" fill="#7DD3FC" opacity="0.35"/><rect x="126.38" y="144.00" width="20.48" height="2.00" rx="1.2" fill="#7DD3FC" opacity="0.35"/><rect x="148.46" y="127.26" width="20.48" height="18.74" rx="1.2" fill="#0369A1" opacity="1"/><rect x="170.54" y="143.16" width="20.48" height="2.84" rx="1.2" fill="#0369A1" opacity="1"/><rect x="192.62" y="144.00" width="20.48" height="2.00" rx="1.2" fill="#7DD3FC" opacity="0.35"/><rect x="214.69" y="144.00" width="20.48" height="2.00" rx="1.2" fill="#7DD3FC" opacity="0.35"/><rect x="236.77" y="144.00" width="20.48" height="2.00" rx="1.2" fill="#7DD3FC" opacity="0.35"/><rect x="258.85" y="144.00" width="20.48" height="2.00" rx="1.2" fill="#7DD3FC" opacity="0.35"/><rect x="280.92" y="144.00" width="20.48" height="2.00" rx="1.2" fill="#7DD3FC" opacity="0.35"/><rect x="303.00" y="138.98" width="20.48" height="7.02" rx="1.2" fill="#0369A1" opacity="1"/><rect x="325.08" y="142.33" width="20.48" height="3.67" rx="1.2" fill="#0369A1" opacity="1"/><rect x="347.15" y="143.16" width="20.48" height="2.84" rx="1.2" fill="#0369A1" opacity="1"/><rect x="369.23" y="113.86" width="20.48" height="32.14" rx="1.2" fill="#047857" opacity="1"/><rect x="391.31" y="134.79" width="20.48" height="11.21" rx="1.2" fill="#0369A1" opacity="1"/><rect x="413.38" y="144.00" width="20.48" height="2.00" rx="1.2" fill="#7DD3FC" opacity="0.35"/><rect x="435.46" y="143.16" width="20.48" height="2.84" rx="1.2" fill="#0369A1" opacity="1"/><rect x="457.54" y="137.30" width="20.48" height="8.70" rx="1.2" fill="#0369A1" opacity="1"/><rect x="479.62" y="140.65" width="20.48" height="5.35" rx="1.2" fill="#0369A1" opacity="1"/><rect x="501.69" y="137.30" width="20.48" height="8.70" rx="1.2" fill="#0369A1" opacity="1"/><rect x="523.77" y="129.77" width="20.48" height="16.23" rx="1.2" fill="#0369A1" opacity="1"/><rect x="545.85" y="132.28" width="20.48" height="13.72" rx="1.2" fill="#0369A1" opacity="1"/><rect x="567.92" y="132.28" width="20.48" height="13.72" rx="1.2" fill="#0369A1" opacity="1"/><rect x="590.00" y="108.00" width="20.48" height="38.00" rx="1.2" fill="#047857" opacity="1"/><rect x="612.08" y="137.30" width="20.48" height="8.70" rx="1.2" fill="#0369A1" opacity="1"/><rect x="634.15" y="138.14" width="20.48" height="7.86" rx="1.2" fill="#0369A1" opacity="1"/><rect x="656.23" y="133.95" width="20.48" height="12.05" rx="1.2" fill="#0369A1" opacity="1"/><rect x="678.31" y="135.63" width="20.48" height="10.37" rx="1.2" fill="#0369A1" opacity="1"/><rect x="700.38" y="135.63" width="20.48" height="10.37" rx="1.2" fill="#0369A1" opacity="1"/><rect x="722.46" y="133.12" width="20.48" height="12.88" rx="1.2" fill="#0369A1" opacity="1"/><rect x="744.54" y="143.16" width="20.48" height="2.84" rx="1.2" fill="#0369A1" opacity="1"/><rect x="766.62" y="138.98" width="20.48" height="7.02" rx="1.2" fill="#0369A1" opacity="1"/><rect x="788.69" y="139.81" width="20.48" height="6.19" rx="1.2" fill="#0369A1" opacity="1"/><rect x="810.77" y="127.26" width="20.48" height="18.74" rx="1.2" fill="#0369A1" opacity="1"/><rect x="832.85" y="133.12" width="20.48" height="12.88" rx="1.2" fill="#0369A1" opacity="1"/><rect x="854.92" y="144.00" width="20.48" height="2.00" rx="1.2" fill="#7DD3FC" opacity="0.35"/><rect x="877.00" y="144.00" width="20.48" height="2.00" rx="1.2" fill="#7DD3FC" opacity="0.35"/><rect x="899.08" y="143.16" width="20.48" height="2.84" rx="1.2" fill="#0369A1" opacity="1"/><rect x="921.15" y="144.00" width="20.48" height="2.00" rx="1.2" fill="#7DD3FC" opacity="0.35"/><rect x="943.23" y="144.00" width="20.48" height="2.00" rx="1.2" fill="#7DD3FC" opacity="0.35"/><rect x="965.31" y="144.00" width="20.48" height="2.00" rx="1.2" fill="#7DD3FC" opacity="0.35"/><rect x="987.38" y="144.00" width="20.48" height="2.00" rx="1.2" fill="#7DD3FC" opacity="0.35"/><rect x="1009.46" y="143.16" width="20.48" height="2.84" rx="1.2" fill="#0369A1" opacity="1"/><rect x="1031.54" y="143.16" width="20.48" height="2.84" rx="1.2" fill="#0369A1" opacity="1"/><rect x="1053.62" y="131.44" width="20.48" height="14.56" rx="1.2" fill="#0369A1" opacity="1"/><rect x="1075.69" y="144.00" width="20.48" height="2.00" rx="1.2" fill="#7DD3FC" opacity="0.35"/><rect x="1097.77" y="144.00" width="20.48" height="2.00" rx="1.2" fill="#7DD3FC" opacity="0.35"/><rect x="1119.85" y="140.65" width="20.48" height="5.35" rx="1.2" fill="#0369A1" opacity="1"/><rect x="1141.92" y="138.98" width="20.48" height="7.02" rx="1.2" fill="#0369A1" opacity="1"/><text x="16" y="160" font-family="ui-monospace,SFMono-Regular,Menlo,Consolas,monospace" font-size="10" fill="#94A3B8">52 weeks ago</text><text x="1164" y="160" text-anchor="end" font-family="ui-monospace,SFMono-Regular,Menlo,Consolas,monospace" font-size="10" fill="#94A3B8">today</text><text x="590" y="160" text-anchor="middle" font-family="ui-monospace,SFMono-Regular,Menlo,Consolas,monospace" font-size="10" fill="#94A3B8">weekly contribution volume</text></svg>